<svg width="33" height="12" viewBox="0 0 33 12" fill="none" xmlns="http://www.w3.org/2000/svg">
<path d="M0.267944 7.00001V2.31201H1.59194V5.92801H2.78394V7.00001H0.267944ZM5.15075 6.46801C5.13475 6.50534 5.10142 6.55468 5.05075 6.61601C5.00275 6.67734 4.93875 6.74534 4.85875 6.82001C4.77875 6.89201 4.68009 6.95334 4.56275 7.00401C4.44542 7.05734 4.32675 7.08401 4.20675 7.08401C3.83075 7.08401 3.56142 6.97201 3.39875 6.74801C3.23875 6.52401 3.15875 6.15068 3.15875 5.62801V4.20401L3.01875 4.06001V3.60001H4.47075V5.88001C4.46809 6.00001 4.48809 6.08934 4.53075 6.14801C4.57342 6.20401 4.65075 6.23201 4.76275 6.23201C4.77875 6.23201 4.79342 6.23201 4.80675 6.23201C4.82009 6.22934 4.83342 6.22668 4.84675 6.22401C4.86009 6.21868 4.87075 6.21468 4.87875 6.21201C4.88942 6.20934 4.90142 6.20534 4.91475 6.20001C4.92809 6.19201 4.93875 6.18534 4.94675 6.18001C4.95475 6.17468 4.96542 6.16801 4.97875 6.16001C4.99209 6.14934 5.00142 6.14134 5.00675 6.13601C5.01475 6.13068 5.02542 6.12268 5.03875 6.11201C5.05475 6.09868 5.06675 6.08934 5.07475 6.08401V4.20401L4.85875 4.06001V3.60001H6.38275V7.00001H5.27475L5.15075 6.46801ZM9.60903 6.66801L9.57303 6.71201C9.54903 6.73868 9.50637 6.77334 9.44503 6.81601C9.38637 6.85601 9.31437 6.89734 9.22903 6.94001C9.14637 6.98001 9.03437 7.01334 8.89303 7.04001C8.75437 7.06934 8.60503 7.08401 8.44503 7.08401C7.90371 7.08401 7.48903 6.92534 7.20103 6.60801C6.9157 6.29068 6.77303 5.87068 6.77303 5.34801C6.77303 5.06534 6.81703 4.80801 6.90503 4.57601C6.99303 4.34401 7.11303 4.15201 7.26503 4.00001C7.4197 3.84534 7.5997 3.72668 7.80503 3.64401C8.01303 3.55868 8.23703 3.51601 8.47703 3.51601C8.94103 3.51601 9.30103 3.62668 9.55703 3.84801C9.61303 3.90401 9.64104 3.93201 9.64104 3.93201L9.58103 4.87201L9.01303 4.87601L8.78504 4.26401C8.76371 4.25868 8.73437 4.25601 8.69703 4.25601C8.45437 4.25601 8.28637 4.34001 8.19303 4.50801C8.10237 4.67334 8.05703 4.96134 8.05703 5.37201C8.05703 5.55068 8.0717 5.70401 8.10103 5.83201C8.13037 5.95734 8.1637 6.05201 8.20103 6.11601C8.23837 6.17734 8.2877 6.22534 8.34903 6.26001C8.41303 6.29468 8.46503 6.31468 8.50503 6.32001C8.54503 6.32534 8.59437 6.32801 8.65303 6.32801C8.78637 6.32801 8.92238 6.31201 9.06104 6.28001C9.20238 6.24801 9.31837 6.19601 9.40903 6.12401L9.60903 6.66801ZM11.9865 7.00001L11.3665 5.36401L12.0225 3.60001H13.5225L12.4745 5.17201L13.5465 7.00001H11.9865ZM9.9825 7.00001V2.47601L9.74251 2.33201V1.96001L11.0265 1.76001H11.2865V7.00001H9.9825ZM15.3347 8.37601C15.06 8.37601 14.8014 8.33601 14.5587 8.25601C14.316 8.17601 14.1387 8.06801 14.0267 7.93201L14.2347 7.50001C14.3894 7.58801 14.6347 7.63201 14.9707 7.63201C15.0774 7.63201 15.1694 7.62001 15.2467 7.59601C15.324 7.57201 15.3934 7.52934 15.4547 7.46801C15.516 7.40934 15.5627 7.32534 15.5947 7.21601C15.6267 7.10668 15.644 6.97201 15.6467 6.81201V6.46801L15.6067 6.53201C15.58 6.57468 15.5387 6.62668 15.4827 6.68801C15.4294 6.74668 15.368 6.80668 15.2987 6.86801C15.2294 6.92668 15.144 6.97734 15.0427 7.02001C14.944 7.06268 14.8427 7.08401 14.7387 7.08401C14.3414 7.08401 14.0614 6.97334 13.8987 6.75201C13.736 6.52801 13.6547 6.15201 13.6547 5.62401V4.20401L13.5107 4.06001V3.60001H14.9667V5.87601C14.9667 5.99868 14.9854 6.08934 15.0227 6.14801C15.0627 6.20401 15.1414 6.23201 15.2587 6.23201C15.2934 6.23201 15.328 6.22668 15.3627 6.21601C15.3974 6.20268 15.4307 6.18534 15.4627 6.16401C15.4974 6.14268 15.5334 6.11601 15.5707 6.08401V4.20401L15.3507 4.06001V3.60001H16.8747V6.53201C16.8747 7.12134 16.7494 7.57601 16.4987 7.89601C16.248 8.21601 15.86 8.37601 15.3347 8.37601ZM19.6456 7.00001L19.4896 6.48401C19.4682 6.52134 19.4429 6.55868 19.4136 6.59601C19.3869 6.63334 19.3429 6.68134 19.2816 6.74001C19.2202 6.79601 19.1549 6.84534 19.0856 6.88801C19.0162 6.93068 18.9296 6.96801 18.8256 7.00001C18.7216 7.03201 18.6122 7.04801 18.4976 7.04801C18.0576 7.04801 17.7349 6.89734 17.5296 6.59601C17.3242 6.29468 17.2216 5.87601 17.2216 5.34001C17.2216 5.00401 17.2696 4.70534 17.3656 4.44401C17.4616 4.18001 17.6122 3.96801 17.8176 3.80801C18.0229 3.64801 18.2709 3.56801 18.5616 3.56801C18.7349 3.56801 18.8896 3.58668 19.0256 3.62401C19.1616 3.66134 19.2789 3.70668 19.3776 3.76001V2.54801L18.9376 2.40001V1.96001L20.3536 1.76001H20.6656V7.00001H19.6456ZM19.0816 6.26401C19.1296 6.26401 19.1789 6.25601 19.2296 6.24001C19.2802 6.22134 19.3296 6.19601 19.3776 6.16401V4.15201C19.2949 4.13334 19.2189 4.12401 19.1496 4.12401C18.7949 4.12668 18.6162 4.40001 18.6136 4.94401V5.50401C18.6136 5.75468 18.6576 5.94401 18.7456 6.07201C18.8336 6.20001 18.9456 6.26401 19.0816 6.26401ZM22.9344 6.64401L22.8944 6.68801C22.8678 6.72001 22.8264 6.75734 22.7704 6.80001C22.7171 6.84268 22.6544 6.88534 22.5824 6.92801C22.5131 6.97068 22.4278 7.00668 22.3264 7.03601C22.2251 7.06801 22.1211 7.08401 22.0144 7.08401C21.2944 7.08401 20.9344 6.72801 20.9344 6.01601C20.9344 5.87734 20.9598 5.75068 21.0104 5.63601C21.0611 5.51868 21.1264 5.42001 21.2064 5.34001C21.2864 5.26001 21.3824 5.18934 21.4944 5.12801C21.6064 5.06401 21.7184 5.01468 21.8304 4.98001C21.9451 4.94268 22.0651 4.91201 22.1904 4.88801C22.3158 4.86401 22.4278 4.84801 22.5264 4.84001C22.6251 4.83201 22.7198 4.82801 22.8104 4.82801V4.75601C22.8104 4.59334 22.7664 4.47868 22.6784 4.41201C22.5931 4.34534 22.4544 4.31201 22.2624 4.31201C22.0971 4.31201 21.9251 4.33201 21.7464 4.37201C21.5678 4.40934 21.4278 4.45468 21.3264 4.50801L21.0704 3.96401C21.2518 3.84668 21.4878 3.74401 21.7784 3.65601C22.0691 3.56534 22.3651 3.52001 22.6664 3.52001C22.9331 3.52001 23.1531 3.54668 23.3264 3.60001C23.4998 3.65068 23.6398 3.73868 23.7464 3.86401C23.8558 3.98668 23.9331 4.14401 23.9784 4.33601C24.0238 4.52534 24.0464 4.76668 24.0464 5.06001V6.68801L24.1584 7.00001H23.0624L22.9344 6.64401ZM22.6184 6.38001C22.6531 6.38001 22.6851 6.37334 22.7144 6.36001C22.7464 6.34401 22.7704 6.32934 22.7864 6.31601C22.8024 6.30001 22.8104 6.29201 22.8104 6.29201V5.33201C22.6478 5.33201 22.5184 5.37734 22.4224 5.46801C22.3264 5.55601 22.2784 5.69334 22.2784 5.88001C22.2784 6.21334 22.3918 6.38001 22.6184 6.38001ZM25.85 7.00001H24.558V4.41201L24.318 4.26401V3.81201L25.178 3.60001H25.502L25.618 4.55201C25.7273 3.89868 26.078 3.57201 26.67 3.57201C26.7367 3.57201 26.806 3.58401 26.878 3.60801L26.742 5.03201C26.686 4.98134 26.5633 4.95601 26.374 4.95601C26.102 4.95601 25.9273 5.02801 25.85 5.17201V7.00001ZM29.0387 7.00001H27.8187L26.7987 3.60001H28.2427L28.7267 5.76801L29.0907 4.28001L28.9027 3.60001H30.2867L30.6947 5.76801L31.2347 3.60001H32.0907L31.0667 7.00001H29.8507L29.4587 5.60001L29.0387 7.00001Z" fill="white"/>
<mask id="mask0_152_23" style="mask-type:luminance" maskUnits="userSpaceOnUse" x="22" y="0" width="8" height="3">
<path d="M30 0H22V3H30V0Z" fill="white"/>
</mask>
<g mask="url(#mask0_152_23)">
<path d="M29.4621 2.74969C29.5589 2.81533 29.6896 2.78872 29.7541 2.69026C29.8186 2.59179 29.7925 2.45874 29.6957 2.39309L29.4621 2.74969ZM22 2.57139L24.3684 2.01373L22.7097 0.204834L22 2.57139ZM29.6957 2.39309L28.0472 1.27444L27.8136 1.63104L29.4621 2.74969L29.6957 2.39309ZM28.0472 1.27444C26.3412 0.116824 24.0772 0.304971 22.5783 1.72892L22.8656 2.04223C24.2217 0.753893 26.2701 0.583668 27.8136 1.63104L28.0472 1.27444Z" fill="white"/>
</g>
</svg>
