<svg width="18" height="18" viewBox="0 0 18 18" fill="none" xmlns="http://www.w3.org/2000/svg">
<path d="M1 8.24V3.552H2.324V7.168H3.516V8.24H1ZM5.88281 7.708C5.86681 7.74533 5.83348 7.79467 5.78281 7.856C5.73481 7.91733 5.67081 7.98533 5.59081 8.06C5.51081 8.132 5.41215 8.19333 5.29481 8.244C5.17748 8.29733 5.05881 8.324 4.93881 8.324C4.56281 8.324 4.29348 8.212 4.13081 7.988C3.97081 7.764 3.89081 7.39067 3.89081 6.868V5.444L3.75081 5.3V4.84H5.20281V7.12C5.20015 7.24 5.22015 7.32933 5.26281 7.388C5.30548 7.444 5.38281 7.472 5.49481 7.472C5.51081 7.472 5.52548 7.472 5.53881 7.472C5.55215 7.46933 5.56548 7.46667 5.57881 7.464C5.59215 7.45867 5.60281 7.45467 5.61081 7.452C5.62148 7.44933 5.63348 7.44533 5.64681 7.44C5.66015 7.432 5.67081 7.42533 5.67881 7.42C5.68681 7.41467 5.69748 7.408 5.71081 7.4C5.72415 7.38933 5.73348 7.38133 5.73881 7.376C5.74681 7.37067 5.75748 7.36267 5.77081 7.352C5.78681 7.33867 5.79881 7.32933 5.80681 7.324V5.444L5.59081 5.3V4.84H7.11481V8.24H6.00681L5.88281 7.708ZM10.3411 7.908L10.3051 7.952C10.2811 7.97867 10.2384 8.01333 10.1771 8.056C10.1184 8.096 10.0464 8.13733 9.96109 8.18C9.87843 8.22 9.76643 8.25333 9.62509 8.28C9.48643 8.30933 9.33709 8.324 9.17709 8.324C8.63576 8.324 8.22109 8.16533 7.93309 7.848C7.64776 7.53067 7.50509 7.11067 7.50509 6.588C7.50509 6.30533 7.54909 6.048 7.63709 5.816C7.72509 5.584 7.84509 5.392 7.99709 5.24C8.15176 5.08533 8.33176 4.96667 8.53709 4.884C8.74509 4.79867 8.96909 4.756 9.20909 4.756C9.67309 4.756 10.0331 4.86667 10.2891 5.088C10.3451 5.144 10.3731 5.172 10.3731 5.172L10.3131 6.112L9.74509 6.116L9.51709 5.504C9.49576 5.49867 9.46643 5.496 9.42909 5.496C9.18643 5.496 9.01843 5.58 8.92509 5.748C8.83443 5.91333 8.78909 6.20133 8.78909 6.612C8.78909 6.79067 8.80376 6.944 8.83309 7.072C8.86243 7.19733 8.89576 7.292 8.93309 7.356C8.97043 7.41733 9.01976 7.46533 9.08109 7.5C9.14509 7.53467 9.19709 7.55467 9.23709 7.56C9.27709 7.56533 9.32643 7.568 9.38509 7.568C9.51843 7.568 9.65443 7.552 9.79309 7.52C9.93443 7.488 10.0504 7.436 10.1411 7.364L10.3411 7.908ZM12.7186 8.24L12.0986 6.604L12.7546 4.84H14.2546L13.2066 6.412L14.2786 8.24H12.7186ZM10.7146 8.24V3.716L10.4746 3.572V3.2L11.7586 3H12.0186V8.24H10.7146ZM16.0668 9.616C15.7921 9.616 15.5335 9.576 15.2908 9.496C15.0481 9.416 14.8708 9.308 14.7588 9.172L14.9668 8.74C15.1215 8.828 15.3668 8.872 15.7028 8.872C15.8095 8.872 15.9015 8.86 15.9788 8.836C16.0561 8.812 16.1255 8.76933 16.1868 8.708C16.2481 8.64933 16.2948 8.56533 16.3268 8.456C16.3588 8.34667 16.3761 8.212 16.3788 8.052V7.708L16.3388 7.772C16.3121 7.81467 16.2708 7.86667 16.2148 7.928C16.1615 7.98667 16.1001 8.04667 16.0308 8.108C15.9615 8.16667 15.8761 8.21733 15.7748 8.26C15.6761 8.30267 15.5748 8.324 15.4708 8.324C15.0735 8.324 14.7935 8.21333 14.6308 7.992C14.4681 7.768 14.3868 7.392 14.3868 6.864V5.444L14.2428 5.3V4.84H15.6988V7.116C15.6988 7.23867 15.7175 7.32933 15.7548 7.388C15.7948 7.444 15.8735 7.472 15.9908 7.472C16.0255 7.472 16.0601 7.46667 16.0948 7.456C16.1295 7.44267 16.1628 7.42533 16.1948 7.404C16.2295 7.38267 16.2655 7.356 16.3028 7.324V5.444L16.0828 5.3V4.84H17.6068V7.772C17.6068 8.36133 17.4815 8.816 17.2308 9.136C16.9801 9.456 16.5921 9.616 16.0668 9.616Z" fill="white"/>
<path d="M13.1942 10.7849C13.291 10.8505 13.4217 10.8239 13.4862 10.7254C13.5507 10.6269 13.5246 10.4939 13.4278 10.4283L13.1942 10.7849ZM5.73206 10.6066L8.10046 10.0489L6.44178 8.23999L5.73206 10.6066ZM13.4278 10.4283L11.7793 9.3096L11.5457 9.66619L13.1942 10.7849L13.4278 10.4283ZM11.7793 9.3096C10.0733 8.15198 7.80922 8.34013 6.31033 9.76408L6.59762 10.0774C7.95376 8.78905 10.0022 8.61882 11.5457 9.66619L11.7793 9.3096Z" fill="white"/>
<path d="M4.28008 14.24L4.12408 13.724C4.10275 13.7613 4.07741 13.7987 4.04808 13.836C4.02141 13.8733 3.97741 13.9213 3.91608 13.98C3.85475 14.036 3.78941 14.0853 3.72008 14.128C3.65075 14.1707 3.56408 14.208 3.46008 14.24C3.35608 14.272 3.24675 14.288 3.13208 14.288C2.69208 14.288 2.36941 14.1373 2.16408 13.836C1.95875 13.5347 1.85608 13.116 1.85608 12.58C1.85608 12.244 1.90408 11.9453 2.00008 11.684C2.09608 11.42 2.24675 11.208 2.45208 11.048C2.65741 10.888 2.90541 10.808 3.19608 10.808C3.36941 10.808 3.52408 10.8267 3.66008 10.864C3.79608 10.9013 3.91341 10.9467 4.01208 11V9.788L3.57208 9.64V9.2L4.98808 9H5.30008V14.24H4.28008ZM3.71608 13.504C3.76408 13.504 3.81341 13.496 3.86408 13.48C3.91475 13.4613 3.96408 13.436 4.01208 13.404V11.392C3.92941 11.3733 3.85341 11.364 3.78408 11.364C3.42941 11.3667 3.25075 11.64 3.24808 12.184V12.744C3.24808 12.9947 3.29208 13.184 3.38008 13.312C3.46808 13.44 3.58008 13.504 3.71608 13.504ZM7.56896 13.884L7.52896 13.928C7.50229 13.96 7.46095 13.9973 7.40495 14.04C7.35162 14.0827 7.28895 14.1253 7.21695 14.168C7.14762 14.2107 7.06229 14.2467 6.96096 14.276C6.85962 14.308 6.75562 14.324 6.64896 14.324C5.92896 14.324 5.56896 13.968 5.56896 13.256C5.56896 13.1173 5.59429 12.9907 5.64495 12.876C5.69562 12.7587 5.76095 12.66 5.84096 12.58C5.92095 12.5 6.01695 12.4293 6.12896 12.368C6.24095 12.304 6.35295 12.2547 6.46496 12.22C6.57962 12.1827 6.69962 12.152 6.82495 12.128C6.95029 12.104 7.06229 12.088 7.16095 12.08C7.25962 12.072 7.35429 12.068 7.44496 12.068V11.996C7.44496 11.8333 7.40096 11.7187 7.31295 11.652C7.22762 11.5853 7.08895 11.552 6.89696 11.552C6.73162 11.552 6.55962 11.572 6.38096 11.612C6.20229 11.6493 6.06229 11.6947 5.96095 11.748L5.70495 11.204C5.88629 11.0867 6.12229 10.984 6.41296 10.896C6.70362 10.8053 6.99962 10.76 7.30095 10.76C7.56762 10.76 7.78762 10.7867 7.96096 10.84C8.13429 10.8907 8.27429 10.9787 8.38095 11.104C8.49029 11.2267 8.56762 11.384 8.61295 11.576C8.65829 11.7653 8.68096 12.0067 8.68096 12.3V13.928L8.79295 14.24H7.69696L7.56896 13.884ZM7.25296 13.62C7.28762 13.62 7.31962 13.6133 7.34896 13.6C7.38095 13.584 7.40495 13.5693 7.42096 13.556C7.43696 13.54 7.44496 13.532 7.44496 13.532V12.572C7.28229 12.572 7.15296 12.6173 7.05695 12.708C6.96095 12.796 6.91296 12.9333 6.91296 13.12C6.91296 13.4533 7.02629 13.62 7.25296 13.62ZM10.4845 14.24H9.19252V11.652L8.95252 11.504V11.052L9.81252 10.84H10.1365L10.2525 11.792C10.3618 11.1387 10.7125 10.812 11.3045 10.812C11.3712 10.812 11.4405 10.824 11.5125 10.848L11.3765 12.272C11.3205 12.2213 11.1979 12.196 11.0085 12.196C10.7365 12.196 10.5618 12.268 10.4845 12.412V14.24ZM13.6733 14.24H12.4533L11.4333 10.84H12.8773L13.3613 13.008L13.7253 11.52L13.5373 10.84H14.9213L15.3293 13.008L15.8693 10.84H16.7253L15.7013 14.24H14.4853L14.0933 12.84L13.6733 14.24Z" fill="white"/>
</svg>
